<?xml version="1.0" encoding="UTF-8" standalone="no"?>
<!DOCTYPE svg PUBLIC "-//W3C//DTD SVG 1.1//EN" "http://www.w3.org/Graphics/SVG/1.1/DTD/svg11.dtd">
<svg width="100%" height="100%" viewBox="0 0 1600 837" version="1.1" xmlns="http://www.w3.org/2000/svg" xmlns:xlink="http://www.w3.org/1999/xlink" xml:space="preserve" xmlns:serif="http://www.serif.com/" style="fill-rule:evenodd;clip-rule:evenodd;stroke-linejoin:round;stroke-miterlimit:1.41421;">
    <g id="OBJECTS">
        <g transform="matrix(1,0,0,1,591.717,766.115)">
            <path d="M0,26.405C0,11.822 94.989,0 212.165,0C329.34,0 424.33,11.822 424.33,26.405" style="fill:rgb(58,88,101);fill-rule:nonzero;"/>
        </g>
        <g transform="matrix(-1,-0,-0,1,1591.37,626.261)">
            <rect x="755.431" y="73.647" width="80.511" height="63.275" style="fill:rgb(97,143,168);"/>
        </g>
        <g transform="matrix(-1,-0,-0,1,1591.37,572.011)">
            <rect x="755.431" y="116.591" width="80.511" height="31.637" style="fill:rgb(19,52,63);"/>
        </g>
        <g transform="matrix(1,0,0,1,951.092,760)">
            <path d="M0,38.612L-310.81,38.612C-313.222,38.612 -315.195,36.639 -315.195,34.227L-315.195,4.385C-315.195,1.973 -313.222,0 -310.81,0L0,0C2.412,0 4.385,1.973 4.385,4.385L4.385,34.227C4.385,36.639 2.412,38.612 0,38.612" style="fill:rgb(71,106,134);fill-rule:nonzero;"/>
        </g>
        <g transform="matrix(1,0,0,1,1019.95,699.908)">
            <path d="M0,-290.695L-165.114,-290.695L-202.905,-253.019L-172.508,-225.908L-247.268,-131.431L-219.391,-217.693L-257.127,-244.803L-235.767,-268.975L-257.127,-290.695L-439.904,-290.695C-445.335,-290.695 -449.779,-286.252 -449.779,-280.821L-449.779,-9.875C-449.779,-4.444 -445.335,0 -439.904,0L0,0C5.431,0 9.875,-4.444 9.875,-9.875L9.875,-280.821C9.875,-286.252 5.431,-290.695 0,-290.695" style="fill:rgb(19,48,69);fill-rule:nonzero;"/>
        </g>
        <g transform="matrix(1,0,0,1,1029.83,699.909)">
            <path d="M0,-22.614L-459.654,-22.614L-459.654,-7.363C-459.654,-3.297 -456.357,0 -452.292,0L-7.362,0C-3.296,0 0,-3.297 0,-7.363L0,-22.614Z" style="fill:rgb(97,155,179);fill-rule:nonzero;"/>
        </g>
        <g transform="matrix(1,0,0,1,1003.36,655.099)">
            <path d="M0,-224.166L-170.312,-224.166L-186.317,-208.21L-155.92,-181.099L-230.68,-86.621L-202.803,-172.883L-240.539,-199.994L-219.179,-224.166L-406.728,-224.166C-411.116,-224.166 -414.706,-220.576 -414.706,-216.188L-414.706,-7.978C-414.706,-3.59 -411.116,0 -406.728,0L0,0C4.388,0 7.978,-3.59 7.978,-7.978L7.978,-216.188C7.978,-220.576 4.388,-224.166 0,-224.166" style="fill:white;fill-rule:nonzero;"/>
        </g>
        <g transform="matrix(1,0,0,1,800.307,68.5079)">
            <path d="M0,343.977C13.837,330.72 1.879,304.925 -18.79,303.447C-33.274,302.411 -51.58,309.924 -60.118,299.615C-65.669,292.912 -61.737,283.632 -63.304,275.514C-69.763,242.081 -126.825,249.32 -150.094,246.566C-190.019,241.841 -230.865,207.883 -231.131,163.738C-231.278,139.101 -217.977,115.952 -200.329,99.053C-116.11,18.415 25.071,-4.905 135.685,4.521C205.83,10.498 318.395,28.027 331.303,115.861C334.936,140.574 325.701,165.887 311.061,185.982C247.931,272.631 123.759,260.939 31.489,253.135C21.754,252.311 11.557,251.546 2.584,254.806C-6.389,258.066 -13.493,266.769 -10.541,274.901C8.528,277.612 24.644,292.299 26.859,308.984C29.075,325.67 17.192,342.862 -0.717,348.882L0,343.977Z" style="fill:rgb(101,163,180);fill-rule:nonzero;"/>
        </g>
    </g>
</svg>
